# xmcd
#
# Track frame offsets: 
#        150
#        674
#        20699
#        38960
#        52840
#        67985
#        84312
#        102160
#        118244
#        135608
#        150027
#        165760
#        183027
#        199151
#        217773
#        237750
#        252685
#        270228
#        286039
#        301995
#        318423
#
# Disc length: 4430 seconds
#
# Revision: 0
# Processed by: cddbd v1.5.2PL0 Copyright (c) Steve Scherf et al.
# Submitted via: ExactAudioCopy v0.99pb4
#
DISCID=01114c15
DTITLE=Various Artist - prevue promo 1074A-3
DYEAR=2001
DGENRE=pop
TTITLE0=blank - data
TTITLE1=NSYNC - Gone(Radio Edit)
TTITLE2=NSYNC - Gone(Radio Edit No Intro)
TTITLE3=Atomic Kitten - Whole Again
TTITLE4=Athena Cage - Until You Come Back To Me
TTITLE5=Mariah feat.  Mystikal - Don't Stop (Funkin' 4 Jamaica)
TTITLE6=Jamiroquai - Little L
TTITLE7=Ludacris feat.  Nate Dogg - Area Codes(Radio Edit)
TTITLE8=Nikka Costa - Everybody Got Their Something
TTITLE9=Buddy and Julie Miller - You Make My Heart Beat To Fast (sic as 
TTITLE9=per tray card)
TTITLE10=Leroy - Good Time
TTITLE11=David Byrne - U.B. Jesus
TTITLE12=Cowboy Junkies - Small Swift Birds
TTITLE13=Roland Orzabal - Low Life( From  "Tears For Fears")
TTITLE14=Marcia Ball - Louella
TTITLE15=Sugarbomb - Hello(Acoustic Version)
TTITLE16=Varnaline - Song
TTITLE17=System Of A Down - Chop Suey!
TTITLE18=Athenaeum - Comfort
TTITLE19=Badly Drawn Boy - Everbody's Stalking
TTITLE20=Abandoned Pools - Mercy Kiss
EXTD=
EXTT0=
EXTT1=
EXTT2=
EXTT3=
EXTT4=
EXTT5=
EXTT6=
EXTT7=
EXTT8=
EXTT9=
EXTT10=
EXTT11=
EXTT12=
EXTT13=
EXTT14=
EXTT15=
EXTT16=
EXTT17=
EXTT18=
EXTT19=
EXTT20=
PLAYORDER=
